<mxfile host="app.diagrams.net" agent="Mozilla/5.0 (Windows NT 10.0; Win64; x64; rv:136.0) Gecko/20100101 Firefox/136.0" version="26.1.3">
  <diagram name="1 oldal" id="91mtQWvy9Iw6p1peFR_n">
    <mxGraphModel dx="1877" dy="558" grid="1" gridSize="10" guides="1" tooltips="1" connect="1" arrows="1" fold="1" page="1" pageScale="1" pageWidth="827" pageHeight="1169" math="0" shadow="0">
      <root>
        <mxCell id="0" />
        <mxCell id="1" parent="0" />
        <mxCell id="1DXtKI3syPHCon6pKeZi-1" value="&lt;b&gt;HALLGATÓ&lt;/b&gt;" style="rounded=0;whiteSpace=wrap;html=1;" parent="1" vertex="1">
          <mxGeometry x="49" y="380" width="120" height="60" as="geometry" />
        </mxCell>
        <mxCell id="1DXtKI3syPHCon6pKeZi-2" style="edgeStyle=orthogonalEdgeStyle;rounded=0;orthogonalLoop=1;jettySize=auto;html=1;entryX=1;entryY=0.5;entryDx=0;entryDy=0;" parent="1" source="1DXtKI3syPHCon6pKeZi-68" target="1DXtKI3syPHCon6pKeZi-1" edge="1">
          <mxGeometry relative="1" as="geometry" />
        </mxCell>
        <mxCell id="1DXtKI3syPHCon6pKeZi-3" style="edgeStyle=orthogonalEdgeStyle;rounded=0;orthogonalLoop=1;jettySize=auto;html=1;" parent="1" source="1DXtKI3syPHCon6pKeZi-4" target="1DXtKI3syPHCon6pKeZi-5" edge="1">
          <mxGeometry relative="1" as="geometry" />
        </mxCell>
        <mxCell id="1DXtKI3syPHCon6pKeZi-4" value="&lt;b&gt;HALLGAT&lt;/b&gt;" style="rounded=0;whiteSpace=wrap;html=1;" parent="1" vertex="1">
          <mxGeometry x="470" y="380" width="120" height="60" as="geometry" />
        </mxCell>
        <mxCell id="1DXtKI3syPHCon6pKeZi-5" value="&lt;b&gt;TÁRGY&lt;/b&gt;" style="rounded=0;whiteSpace=wrap;html=1;" parent="1" vertex="1">
          <mxGeometry x="910" y="380" width="120" height="60" as="geometry" />
        </mxCell>
        <mxCell id="1DXtKI3syPHCon6pKeZi-7" value="&lt;b&gt;OKTATÓ&lt;/b&gt;" style="rounded=0;whiteSpace=wrap;html=1;" parent="1" vertex="1">
          <mxGeometry x="1300" y="380" width="120" height="60" as="geometry" />
        </mxCell>
        <mxCell id="1DXtKI3syPHCon6pKeZi-26" value="&lt;u&gt;Neptunkód&lt;/u&gt;" style="ellipse;whiteSpace=wrap;html=1;" parent="1" vertex="1">
          <mxGeometry x="-71.5" y="480" width="70" height="40" as="geometry" />
        </mxCell>
        <mxCell id="1DXtKI3syPHCon6pKeZi-28" value="Név" style="ellipse;whiteSpace=wrap;html=1;" parent="1" vertex="1">
          <mxGeometry x="23.5" y="480" width="70" height="40" as="geometry" />
        </mxCell>
        <mxCell id="1DXtKI3syPHCon6pKeZi-29" value="Szül.d" style="ellipse;whiteSpace=wrap;html=1;" parent="1" vertex="1">
          <mxGeometry x="118.5" y="480" width="70" height="40" as="geometry" />
        </mxCell>
        <mxCell id="1DXtKI3syPHCon6pKeZi-30" value="Tankör" style="ellipse;whiteSpace=wrap;html=1;" parent="1" vertex="1">
          <mxGeometry x="219.5" y="480" width="70" height="40" as="geometry" />
        </mxCell>
        <mxCell id="1DXtKI3syPHCon6pKeZi-31" value="" style="endArrow=none;html=1;rounded=0;entryX=0.5;entryY=1;entryDx=0;entryDy=0;exitX=0.5;exitY=0;exitDx=0;exitDy=0;" parent="1" source="1DXtKI3syPHCon6pKeZi-26" target="1DXtKI3syPHCon6pKeZi-1" edge="1">
          <mxGeometry width="50" height="50" relative="1" as="geometry">
            <mxPoint x="60" y="585" as="sourcePoint" />
            <mxPoint x="110" y="535" as="targetPoint" />
          </mxGeometry>
        </mxCell>
        <mxCell id="1DXtKI3syPHCon6pKeZi-32" value="Irányítószám" style="ellipse;whiteSpace=wrap;html=1;" parent="1" vertex="1">
          <mxGeometry x="-71.5" y="300" width="70" height="40" as="geometry" />
        </mxCell>
        <mxCell id="1DXtKI3syPHCon6pKeZi-33" value="Város" style="ellipse;whiteSpace=wrap;html=1;" parent="1" vertex="1">
          <mxGeometry x="23.5" y="300" width="70" height="40" as="geometry" />
        </mxCell>
        <mxCell id="1DXtKI3syPHCon6pKeZi-34" value="Utca" style="ellipse;whiteSpace=wrap;html=1;" parent="1" vertex="1">
          <mxGeometry x="219.5" y="300" width="70" height="40" as="geometry" />
        </mxCell>
        <mxCell id="1DXtKI3syPHCon6pKeZi-35" value="" style="endArrow=none;html=1;rounded=0;entryX=0.5;entryY=1;entryDx=0;entryDy=0;exitX=0.5;exitY=0;exitDx=0;exitDy=0;" parent="1" source="1DXtKI3syPHCon6pKeZi-28" target="1DXtKI3syPHCon6pKeZi-1" edge="1">
          <mxGeometry width="50" height="50" relative="1" as="geometry">
            <mxPoint x="-26" y="490" as="sourcePoint" />
            <mxPoint x="119" y="450" as="targetPoint" />
          </mxGeometry>
        </mxCell>
        <mxCell id="1DXtKI3syPHCon6pKeZi-36" value="" style="endArrow=none;html=1;rounded=0;entryX=0.5;entryY=1;entryDx=0;entryDy=0;exitX=0.5;exitY=0;exitDx=0;exitDy=0;" parent="1" source="1DXtKI3syPHCon6pKeZi-29" target="1DXtKI3syPHCon6pKeZi-1" edge="1">
          <mxGeometry width="50" height="50" relative="1" as="geometry">
            <mxPoint x="69" y="490" as="sourcePoint" />
            <mxPoint x="119" y="450" as="targetPoint" />
          </mxGeometry>
        </mxCell>
        <mxCell id="1DXtKI3syPHCon6pKeZi-37" value="" style="endArrow=none;html=1;rounded=0;entryX=0.5;entryY=1;entryDx=0;entryDy=0;exitX=0.5;exitY=0;exitDx=0;exitDy=0;" parent="1" source="1DXtKI3syPHCon6pKeZi-30" target="1DXtKI3syPHCon6pKeZi-1" edge="1">
          <mxGeometry width="50" height="50" relative="1" as="geometry">
            <mxPoint x="164" y="490" as="sourcePoint" />
            <mxPoint x="119" y="450" as="targetPoint" />
          </mxGeometry>
        </mxCell>
        <mxCell id="1DXtKI3syPHCon6pKeZi-39" value="Házszám" style="ellipse;whiteSpace=wrap;html=1;" parent="1" vertex="1">
          <mxGeometry x="118.5" y="300" width="70" height="40" as="geometry" />
        </mxCell>
        <mxCell id="1DXtKI3syPHCon6pKeZi-41" value="" style="endArrow=none;html=1;rounded=0;entryX=0.5;entryY=1;entryDx=0;entryDy=0;exitX=0.5;exitY=0;exitDx=0;exitDy=0;" parent="1" source="1DXtKI3syPHCon6pKeZi-1" target="1DXtKI3syPHCon6pKeZi-32" edge="1">
          <mxGeometry width="50" height="50" relative="1" as="geometry">
            <mxPoint x="320" y="370" as="sourcePoint" />
            <mxPoint x="370" y="320" as="targetPoint" />
          </mxGeometry>
        </mxCell>
        <mxCell id="1DXtKI3syPHCon6pKeZi-42" value="" style="endArrow=none;html=1;rounded=0;entryX=0.5;entryY=1;entryDx=0;entryDy=0;exitX=0.5;exitY=0;exitDx=0;exitDy=0;" parent="1" source="1DXtKI3syPHCon6pKeZi-1" target="1DXtKI3syPHCon6pKeZi-33" edge="1">
          <mxGeometry width="50" height="50" relative="1" as="geometry">
            <mxPoint x="110" y="380" as="sourcePoint" />
            <mxPoint x="-26" y="350" as="targetPoint" />
          </mxGeometry>
        </mxCell>
        <mxCell id="1DXtKI3syPHCon6pKeZi-43" value="" style="endArrow=none;html=1;rounded=0;entryX=0.5;entryY=1;entryDx=0;entryDy=0;exitX=0.5;exitY=0;exitDx=0;exitDy=0;" parent="1" source="1DXtKI3syPHCon6pKeZi-1" target="1DXtKI3syPHCon6pKeZi-39" edge="1">
          <mxGeometry width="50" height="50" relative="1" as="geometry">
            <mxPoint x="129" y="400" as="sourcePoint" />
            <mxPoint x="-16" y="360" as="targetPoint" />
          </mxGeometry>
        </mxCell>
        <mxCell id="1DXtKI3syPHCon6pKeZi-44" value="" style="endArrow=none;html=1;rounded=0;entryX=0.5;entryY=1;entryDx=0;entryDy=0;exitX=0.5;exitY=0;exitDx=0;exitDy=0;" parent="1" source="1DXtKI3syPHCon6pKeZi-1" target="1DXtKI3syPHCon6pKeZi-34" edge="1">
          <mxGeometry width="50" height="50" relative="1" as="geometry">
            <mxPoint x="327" y="400" as="sourcePoint" />
            <mxPoint x="182" y="360" as="targetPoint" />
          </mxGeometry>
        </mxCell>
        <mxCell id="1DXtKI3syPHCon6pKeZi-46" value="&lt;u&gt;Hallgató FK&lt;/u&gt;" style="ellipse;whiteSpace=wrap;html=1;" parent="1" vertex="1">
          <mxGeometry x="349.5" y="480" width="70" height="40" as="geometry" />
        </mxCell>
        <mxCell id="1DXtKI3syPHCon6pKeZi-47" value="&lt;u&gt;Tárgy FK&lt;/u&gt;" style="ellipse;whiteSpace=wrap;html=1;" parent="1" vertex="1">
          <mxGeometry x="444.5" y="480" width="70" height="40" as="geometry" />
        </mxCell>
        <mxCell id="1DXtKI3syPHCon6pKeZi-48" value="Félév" style="ellipse;whiteSpace=wrap;html=1;" parent="1" vertex="1">
          <mxGeometry x="539.5" y="480" width="70" height="40" as="geometry" />
        </mxCell>
        <mxCell id="1DXtKI3syPHCon6pKeZi-49" value="Vizsgajegy" style="ellipse;whiteSpace=wrap;html=1;" parent="1" vertex="1">
          <mxGeometry x="640.5" y="480" width="70" height="40" as="geometry" />
        </mxCell>
        <mxCell id="1DXtKI3syPHCon6pKeZi-50" value="" style="endArrow=none;html=1;rounded=0;entryX=0.5;entryY=1;entryDx=0;entryDy=0;exitX=0.5;exitY=0;exitDx=0;exitDy=0;" parent="1" source="1DXtKI3syPHCon6pKeZi-46" target="1DXtKI3syPHCon6pKeZi-4" edge="1">
          <mxGeometry width="50" height="50" relative="1" as="geometry">
            <mxPoint x="481" y="585" as="sourcePoint" />
            <mxPoint x="530" y="440" as="targetPoint" />
          </mxGeometry>
        </mxCell>
        <mxCell id="1DXtKI3syPHCon6pKeZi-51" value="" style="endArrow=none;html=1;rounded=0;exitX=0.5;exitY=0;exitDx=0;exitDy=0;entryX=0.5;entryY=1;entryDx=0;entryDy=0;" parent="1" source="1DXtKI3syPHCon6pKeZi-47" target="1DXtKI3syPHCon6pKeZi-4" edge="1">
          <mxGeometry width="50" height="50" relative="1" as="geometry">
            <mxPoint x="395" y="490" as="sourcePoint" />
            <mxPoint x="530" y="460" as="targetPoint" />
          </mxGeometry>
        </mxCell>
        <mxCell id="1DXtKI3syPHCon6pKeZi-52" value="" style="endArrow=none;html=1;rounded=0;exitX=0.5;exitY=0;exitDx=0;exitDy=0;entryX=0.5;entryY=1;entryDx=0;entryDy=0;" parent="1" source="1DXtKI3syPHCon6pKeZi-48" target="1DXtKI3syPHCon6pKeZi-4" edge="1">
          <mxGeometry width="50" height="50" relative="1" as="geometry">
            <mxPoint x="490" y="490" as="sourcePoint" />
            <mxPoint x="530" y="460" as="targetPoint" />
          </mxGeometry>
        </mxCell>
        <mxCell id="1DXtKI3syPHCon6pKeZi-53" value="" style="endArrow=none;html=1;rounded=0;exitX=0.5;exitY=0;exitDx=0;exitDy=0;entryX=0.5;entryY=1;entryDx=0;entryDy=0;" parent="1" source="1DXtKI3syPHCon6pKeZi-49" target="1DXtKI3syPHCon6pKeZi-4" edge="1">
          <mxGeometry width="50" height="50" relative="1" as="geometry">
            <mxPoint x="585" y="490" as="sourcePoint" />
            <mxPoint x="530" y="450" as="targetPoint" />
          </mxGeometry>
        </mxCell>
        <mxCell id="1DXtKI3syPHCon6pKeZi-54" value="&lt;u&gt;Kód&lt;/u&gt;" style="ellipse;whiteSpace=wrap;html=1;" parent="1" vertex="1">
          <mxGeometry x="789.5" y="480" width="70" height="40" as="geometry" />
        </mxCell>
        <mxCell id="1DXtKI3syPHCon6pKeZi-55" value="Megnevezés" style="ellipse;whiteSpace=wrap;html=1;" parent="1" vertex="1">
          <mxGeometry x="884.5" y="480" width="70" height="40" as="geometry" />
        </mxCell>
        <mxCell id="1DXtKI3syPHCon6pKeZi-56" value="Kredit" style="ellipse;whiteSpace=wrap;html=1;" parent="1" vertex="1">
          <mxGeometry x="979.5" y="480" width="70" height="40" as="geometry" />
        </mxCell>
        <mxCell id="1DXtKI3syPHCon6pKeZi-57" value="&lt;u&gt;Oktató FK&lt;/u&gt;" style="ellipse;whiteSpace=wrap;html=1;" parent="1" vertex="1">
          <mxGeometry x="1080.5" y="480" width="70" height="40" as="geometry" />
        </mxCell>
        <mxCell id="1DXtKI3syPHCon6pKeZi-58" value="" style="endArrow=none;html=1;rounded=0;entryX=0.5;entryY=1;entryDx=0;entryDy=0;exitX=0.5;exitY=0;exitDx=0;exitDy=0;" parent="1" source="1DXtKI3syPHCon6pKeZi-54" target="1DXtKI3syPHCon6pKeZi-5" edge="1">
          <mxGeometry width="50" height="50" relative="1" as="geometry">
            <mxPoint x="830" y="520" as="sourcePoint" />
            <mxPoint x="880" y="470" as="targetPoint" />
          </mxGeometry>
        </mxCell>
        <mxCell id="1DXtKI3syPHCon6pKeZi-59" value="" style="endArrow=none;html=1;rounded=0;entryX=0.5;entryY=1;entryDx=0;entryDy=0;exitX=0.5;exitY=0;exitDx=0;exitDy=0;" parent="1" source="1DXtKI3syPHCon6pKeZi-55" target="1DXtKI3syPHCon6pKeZi-5" edge="1">
          <mxGeometry width="50" height="50" relative="1" as="geometry">
            <mxPoint x="950" y="510" as="sourcePoint" />
            <mxPoint x="1000" y="460" as="targetPoint" />
          </mxGeometry>
        </mxCell>
        <mxCell id="1DXtKI3syPHCon6pKeZi-60" value="" style="endArrow=none;html=1;rounded=0;entryX=0.5;entryY=1;entryDx=0;entryDy=0;exitX=0.5;exitY=0;exitDx=0;exitDy=0;" parent="1" source="1DXtKI3syPHCon6pKeZi-56" target="1DXtKI3syPHCon6pKeZi-5" edge="1">
          <mxGeometry width="50" height="50" relative="1" as="geometry">
            <mxPoint x="950" y="510" as="sourcePoint" />
            <mxPoint x="1000" y="460" as="targetPoint" />
          </mxGeometry>
        </mxCell>
        <mxCell id="1DXtKI3syPHCon6pKeZi-61" value="" style="endArrow=none;html=1;rounded=0;entryX=0.5;entryY=1;entryDx=0;entryDy=0;exitX=0.5;exitY=0;exitDx=0;exitDy=0;" parent="1" source="1DXtKI3syPHCon6pKeZi-57" target="1DXtKI3syPHCon6pKeZi-5" edge="1">
          <mxGeometry width="50" height="50" relative="1" as="geometry">
            <mxPoint x="950" y="510" as="sourcePoint" />
            <mxPoint x="1000" y="460" as="targetPoint" />
          </mxGeometry>
        </mxCell>
        <mxCell id="1DXtKI3syPHCon6pKeZi-62" value="&lt;u&gt;Neptunkód&lt;/u&gt;" style="ellipse;whiteSpace=wrap;html=1;" parent="1" vertex="1">
          <mxGeometry x="1241" y="470" width="70" height="40" as="geometry" />
        </mxCell>
        <mxCell id="1DXtKI3syPHCon6pKeZi-63" value="Név" style="ellipse;whiteSpace=wrap;html=1;" parent="1" vertex="1">
          <mxGeometry x="1325" y="470" width="70" height="40" as="geometry" />
        </mxCell>
        <mxCell id="1DXtKI3syPHCon6pKeZi-64" value="Tanszék" style="ellipse;whiteSpace=wrap;html=1;" parent="1" vertex="1">
          <mxGeometry x="1410" y="470" width="70" height="40" as="geometry" />
        </mxCell>
        <mxCell id="1DXtKI3syPHCon6pKeZi-65" value="" style="endArrow=none;html=1;rounded=0;entryX=0.5;entryY=1;entryDx=0;entryDy=0;exitX=0.5;exitY=0;exitDx=0;exitDy=0;" parent="1" source="1DXtKI3syPHCon6pKeZi-62" target="1DXtKI3syPHCon6pKeZi-7" edge="1">
          <mxGeometry width="50" height="50" relative="1" as="geometry">
            <mxPoint x="1120" y="480" as="sourcePoint" />
            <mxPoint x="1170" y="430" as="targetPoint" />
          </mxGeometry>
        </mxCell>
        <mxCell id="1DXtKI3syPHCon6pKeZi-66" value="" style="endArrow=none;html=1;rounded=0;entryX=0.5;entryY=1;entryDx=0;entryDy=0;exitX=0.5;exitY=0;exitDx=0;exitDy=0;" parent="1" source="1DXtKI3syPHCon6pKeZi-63" target="1DXtKI3syPHCon6pKeZi-7" edge="1">
          <mxGeometry width="50" height="50" relative="1" as="geometry">
            <mxPoint x="1360" y="480" as="sourcePoint" />
            <mxPoint x="1410" y="430" as="targetPoint" />
          </mxGeometry>
        </mxCell>
        <mxCell id="1DXtKI3syPHCon6pKeZi-67" value="" style="endArrow=none;html=1;rounded=0;exitX=0.5;exitY=0;exitDx=0;exitDy=0;entryX=0.5;entryY=1;entryDx=0;entryDy=0;" parent="1" source="1DXtKI3syPHCon6pKeZi-64" target="1DXtKI3syPHCon6pKeZi-7" edge="1">
          <mxGeometry width="50" height="50" relative="1" as="geometry">
            <mxPoint x="1360" y="480" as="sourcePoint" />
            <mxPoint x="1410" y="430" as="targetPoint" />
          </mxGeometry>
        </mxCell>
        <mxCell id="1DXtKI3syPHCon6pKeZi-68" value="H-H" style="rhombus;whiteSpace=wrap;html=1;" parent="1" vertex="1">
          <mxGeometry x="280" y="370" width="80" height="80" as="geometry" />
        </mxCell>
        <mxCell id="fdpmMNBQ9SsC6TootQsW-1" value="" style="endArrow=classic;html=1;rounded=0;exitX=1;exitY=0.5;exitDx=0;exitDy=0;entryX=0;entryY=0.5;entryDx=0;entryDy=0;" edge="1" parent="1" source="1DXtKI3syPHCon6pKeZi-68" target="1DXtKI3syPHCon6pKeZi-4">
          <mxGeometry width="50" height="50" relative="1" as="geometry">
            <mxPoint x="450" y="450" as="sourcePoint" />
            <mxPoint x="500" y="400" as="targetPoint" />
          </mxGeometry>
        </mxCell>
        <mxCell id="fdpmMNBQ9SsC6TootQsW-2" value="" style="endArrow=classic;html=1;rounded=0;exitX=1;exitY=0.5;exitDx=0;exitDy=0;" edge="1" parent="1" source="1DXtKI3syPHCon6pKeZi-68">
          <mxGeometry width="50" height="50" relative="1" as="geometry">
            <mxPoint x="450" y="450" as="sourcePoint" />
            <mxPoint x="460" y="410" as="targetPoint" />
          </mxGeometry>
        </mxCell>
        <mxCell id="fdpmMNBQ9SsC6TootQsW-8" value="" style="endArrow=classic;startArrow=classic;html=1;rounded=0;entryX=0;entryY=0.5;entryDx=0;entryDy=0;exitX=1;exitY=0.5;exitDx=0;exitDy=0;" edge="1" parent="1" source="1DXtKI3syPHCon6pKeZi-5" target="1DXtKI3syPHCon6pKeZi-7">
          <mxGeometry width="50" height="50" relative="1" as="geometry">
            <mxPoint x="1050" y="450" as="sourcePoint" />
            <mxPoint x="1100" y="400" as="targetPoint" />
          </mxGeometry>
        </mxCell>
        <mxCell id="fdpmMNBQ9SsC6TootQsW-9" value="" style="endArrow=classic;html=1;rounded=0;exitX=0;exitY=0.5;exitDx=0;exitDy=0;" edge="1" parent="1" source="1DXtKI3syPHCon6pKeZi-7">
          <mxGeometry width="50" height="50" relative="1" as="geometry">
            <mxPoint x="1050" y="450" as="sourcePoint" />
            <mxPoint x="1040" y="410" as="targetPoint" />
          </mxGeometry>
        </mxCell>
        <mxCell id="fdpmMNBQ9SsC6TootQsW-7" value="O-T" style="rhombus;whiteSpace=wrap;html=1;" vertex="1" parent="1">
          <mxGeometry x="1130" y="370" width="80" height="80" as="geometry" />
        </mxCell>
        <mxCell id="fdpmMNBQ9SsC6TootQsW-10" value="H-T" style="rhombus;whiteSpace=wrap;html=1;" vertex="1" parent="1">
          <mxGeometry x="700" y="370" width="80" height="80" as="geometry" />
        </mxCell>
      </root>
    </mxGraphModel>
  </diagram>
</mxfile>
